<svg width="484" height="47" viewBox="0 0 484 47" fill="none" xmlns="http://www.w3.org/2000/svg">
<path d="M0.48 5.616C0.48 3.99466 0.992 2.75733 2.016 1.904C3.04 1.05066 4.53333 0.623997 6.496 0.623997V20.784H29.216V5.616C29.216 3.99466 29.728 2.75733 30.752 1.904C31.776 1.05066 33.2693 0.623997 35.232 0.623997V41.584C35.232 43.2053 34.72 44.4427 33.696 45.296C32.672 46.1493 31.1787 46.576 29.216 46.576V26.096H6.496V41.584C6.496 43.2053 5.984 44.4427 4.96 45.296C3.936 46.1493 2.44267 46.576 0.48 46.576V5.616ZM57.0315 46.576C54.4288 46.576 52.1035 46.0853 50.0555 45.104C48.0075 44.08 46.4075 42.6933 45.2555 40.944C44.1035 39.152 43.5275 37.1467 43.5275 34.928V25.456C43.5275 23.1947 44.1248 21.1467 45.3195 19.312C46.5568 17.4773 48.1995 16.048 50.2475 15.024C52.3382 13.9573 54.5995 13.424 57.0315 13.424C59.4635 13.424 61.6822 13.936 63.6875 14.96C65.7355 15.984 67.3355 17.392 68.4875 19.184C69.6822 20.976 70.2795 23.0027 70.2795 25.264V29.36C70.2795 30.0427 70.0235 30.6187 69.5115 31.088C68.9995 31.5573 68.3808 31.792 67.6555 31.792H48.9675V34.672C48.9675 36.848 49.6502 38.5973 51.0155 39.92C52.4235 41.2427 54.4288 41.904 57.0315 41.904C59.6342 41.904 61.6182 41.328 62.9835 40.176C64.3488 39.024 65.0315 37.4667 65.0315 35.504C66.3115 35.4187 67.3782 35.6747 68.2315 36.272C69.1275 36.8267 69.5755 37.6587 69.5755 38.768C69.5755 40.1333 68.9782 41.4133 67.7835 42.608C66.6315 43.8027 65.0955 44.7627 63.1755 45.488C61.2555 46.2133 59.2075 46.576 57.0315 46.576ZM65.0955 27.44V25.264C65.0955 23.1307 64.3488 21.4027 62.8555 20.08C61.4048 18.7147 59.4635 18.032 57.0315 18.032C54.5995 18.032 52.6368 18.7147 51.1435 20.08C49.6928 21.4027 48.9675 23.1307 48.9675 25.264V27.44H65.0955ZM86.9475 46.576C83.8328 46.576 81.5075 45.7227 79.9715 44.016C78.4355 42.2667 77.6675 39.984 77.6675 37.168V4.72C77.6675 3.312 78.1155 2.288 79.0115 1.648C79.9502 0.965331 81.3582 0.623997 83.2355 0.623997V36.976C83.2355 38.64 83.5768 39.8347 84.2595 40.56C84.9422 41.2853 86.0728 41.648 87.6515 41.648C89.2302 41.648 90.6808 41.264 92.0035 40.496C92.5582 41.136 92.8355 41.8827 92.8355 42.736C92.8355 43.76 92.3022 44.656 91.2355 45.424C90.1688 46.192 88.7395 46.576 86.9475 46.576ZM107.198 46.576C104.083 46.576 101.758 45.7227 100.222 44.016C98.6855 42.2667 97.9175 39.984 97.9175 37.168V4.72C97.9175 3.312 98.3655 2.288 99.2615 1.648C100.2 0.965331 101.608 0.623997 103.486 0.623997V36.976C103.486 38.64 103.827 39.8347 104.51 40.56C105.192 41.2853 106.323 41.648 107.902 41.648C109.48 41.648 110.931 41.264 112.253 40.496C112.808 41.136 113.086 41.8827 113.086 42.736C113.086 43.76 112.552 44.656 111.486 45.424C110.419 46.192 108.99 46.576 107.198 46.576ZM130.328 46.576C127.725 46.576 125.357 46.0853 123.224 45.104C121.133 44.1227 119.49 42.8 118.296 41.136C117.144 39.4293 116.568 37.5307 116.568 35.44V24.944C116.568 22.8107 117.144 20.8693 118.296 19.12C119.49 17.3707 121.133 15.984 123.224 14.96C125.314 13.936 127.682 13.424 130.328 13.424C132.973 13.424 135.341 13.936 137.432 14.96C139.565 15.984 141.208 17.3707 142.36 19.12C143.554 20.8693 144.152 22.8107 144.152 24.944V35.44C144.152 37.5307 143.554 39.4293 142.36 41.136C141.165 42.8 139.522 44.1227 137.432 45.104C135.341 46.0853 132.973 46.576 130.328 46.576ZM130.328 41.776C132.888 41.776 134.914 41.1787 136.408 39.984C137.944 38.7467 138.712 37.1467 138.712 35.184V25.136C138.712 23.088 137.944 21.424 136.408 20.144C134.914 18.864 132.888 18.224 130.328 18.224C127.81 18.224 125.784 18.864 124.248 20.144C122.712 21.424 121.944 23.088 121.944 25.136V35.184C121.944 37.1467 122.69 38.7467 124.184 39.984C125.72 41.1787 127.768 41.776 130.328 41.776ZM153.463 5.424C153.463 3.84533 153.975 2.65067 154.999 1.84C156.065 1.02933 157.537 0.623997 159.415 0.623997V27.44C159.415 29.0613 158.881 30.2987 157.815 31.152C156.791 32.0053 155.34 32.432 153.463 32.432V5.424ZM156.151 46.576C154.828 46.576 153.719 46.1707 152.823 45.36C151.969 44.5067 151.543 43.44 151.543 42.16C151.543 40.9227 151.969 39.8773 152.823 39.024C153.719 38.1707 154.828 37.744 156.151 37.744C157.473 37.744 158.583 38.1707 159.479 39.024C160.375 39.8773 160.823 40.9227 160.823 42.16C160.823 43.44 160.375 44.5067 159.479 45.36C158.583 46.1707 157.473 46.576 156.151 46.576ZM187.573 5.616C187.573 4.03733 188.085 2.82133 189.109 1.968C190.175 1.072 191.669 0.623997 193.589 0.623997V41.584C193.589 43.1627 193.055 44.4 191.989 45.296C190.965 46.1493 189.493 46.576 187.573 46.576V5.616ZM230.979 46.576C227.31 46.576 224.344 45.5947 222.083 43.632C219.864 41.6693 218.755 39.088 218.755 35.888C218.755 32.6453 219.928 30.0427 222.275 28.08C224.622 26.0747 227.715 25.072 231.555 25.072C235.651 25.072 239.022 26.5227 241.667 29.424L241.923 29.168C241.454 28.656 240.92 28.1227 240.323 27.568V24.88C240.323 22.704 239.64 21.0187 238.275 19.824C236.91 18.6293 234.968 18.032 232.451 18.032C227.971 18.032 224.771 19.8027 222.851 23.344C222.168 23.0027 221.592 22.5547 221.123 22C220.696 21.4027 220.483 20.8053 220.483 20.208C220.483 19.056 221.059 17.968 222.211 16.944C223.363 15.8773 224.878 15.024 226.755 14.384C228.675 13.744 230.68 13.424 232.771 13.424C236.824 13.424 240.003 14.4267 242.307 16.432C244.654 18.4373 245.827 21.2107 245.827 24.752V42.288C245.827 43.7813 245.4 44.8693 244.547 45.552C243.694 46.2347 242.35 46.576 240.515 46.576V43.568C241.411 42.6293 241.902 42.0747 241.987 41.904L241.731 41.648C238.958 44.9333 235.374 46.576 230.979 46.576ZM231.939 42.16C234.584 42.16 236.654 41.6053 238.147 40.496C239.683 39.3867 240.451 37.8507 240.451 35.888C240.451 33.9253 239.704 32.368 238.211 31.216C236.718 30.064 234.67 29.488 232.067 29.488C229.635 29.488 227.715 30.064 226.307 31.216C224.942 32.3253 224.259 33.8827 224.259 35.888C224.259 37.8933 224.92 39.4507 226.243 40.56C227.608 41.6267 229.507 42.16 231.939 42.16ZM254.48 18.16C254.48 15.0027 256.251 13.424 259.792 13.424V17.52C259.237 18.1173 258.789 18.6933 258.448 19.248L258.704 19.504C260.069 17.584 261.52 16.0907 263.056 15.024C264.592 13.9573 266.363 13.424 268.368 13.424C272.251 13.424 274.917 15.28 276.368 18.992C278.8 15.28 282.043 13.424 286.096 13.424C289.125 13.424 291.451 14.448 293.072 16.496C294.736 18.5013 295.568 21.1467 295.568 24.432V42.48C295.568 43.888 295.099 44.9333 294.16 45.616C293.264 46.256 291.899 46.576 290.064 46.576V24.752C290.064 22.704 289.637 21.104 288.784 19.952C287.931 18.8 286.587 18.224 284.752 18.224C282.832 18.224 281.189 18.8853 279.824 20.208C278.459 21.488 277.776 23.216 277.776 25.392V42.48C277.776 43.888 277.328 44.9333 276.432 45.616C275.536 46.256 274.171 46.576 272.336 46.576V24.752C272.336 22.704 271.909 21.104 271.056 19.952C270.203 18.8 268.859 18.224 267.024 18.224C265.061 18.224 263.397 18.928 262.032 20.336C260.667 21.744 259.984 23.472 259.984 25.52V42.48C259.984 43.888 259.515 44.9333 258.576 45.616C257.68 46.256 256.315 46.576 254.48 46.576V18.16ZM320.418 5.808C320.418 4.18667 320.908 2.928 321.89 2.032C322.914 1.09333 324.322 0.623997 326.114 0.623997L350.946 38.384L351.394 38L349.538 34.928V0.623997C351.5 0.623997 352.972 1.05066 353.954 1.904C354.978 2.75733 355.49 3.99466 355.49 5.616V41.84C355.49 43.2053 354.999 44.336 354.018 45.232C353.079 46.128 351.863 46.576 350.37 46.576L324.962 7.984L324.514 8.368L326.37 11.44V41.584C326.37 43.2053 325.858 44.4427 324.834 45.296C323.852 46.1493 322.38 46.576 320.418 46.576V5.808ZM368.704 8.624C367.509 8.624 366.507 8.24 365.696 7.472C364.885 6.704 364.48 5.744 364.48 4.592C364.48 3.44 364.885 2.50133 365.696 1.776C366.507 1.008 367.509 0.623997 368.704 0.623997C369.856 0.623997 370.837 1.008 371.648 1.776C372.459 2.50133 372.864 3.44 372.864 4.592C372.864 5.744 372.459 6.704 371.648 7.472C370.837 8.24 369.856 8.624 368.704 8.624ZM365.888 17.52C365.888 16.112 366.336 15.088 367.232 14.448C368.171 13.7653 369.579 13.424 371.456 13.424V42.48C371.456 43.888 370.987 44.9333 370.048 45.616C369.152 46.256 367.765 46.576 365.888 46.576V17.52ZM408.479 45.168C408.138 45.5947 407.711 45.936 407.199 46.192C406.687 46.448 406.111 46.576 405.471 46.576C404.788 46.576 404.191 46.448 403.679 46.192C403.167 45.936 402.698 45.4667 402.271 44.784L392.095 28.848L387.359 33.072V42.544C387.359 45.232 385.524 46.576 381.855 46.576V5.232C381.855 2.16 383.711 0.623997 387.423 0.623997L387.359 27.376L402.847 13.488C404.084 14.64 404.703 15.6213 404.703 16.432C404.703 17.0293 404.554 17.52 404.255 17.904C403.999 18.2453 403.487 18.7573 402.719 19.44L395.551 25.776L408.479 45.168ZM420.392 8.624C419.197 8.624 418.194 8.24 417.384 7.472C416.573 6.704 416.168 5.744 416.168 4.592C416.168 3.44 416.573 2.50133 417.384 1.776C418.194 1.008 419.197 0.623997 420.392 0.623997C421.544 0.623997 422.525 1.008 423.336 1.776C424.146 2.50133 424.552 3.44 424.552 4.592C424.552 5.744 424.146 6.704 423.336 7.472C422.525 8.24 421.544 8.624 420.392 8.624ZM417.576 17.52C417.576 16.112 418.024 15.088 418.92 14.448C419.858 13.7653 421.266 13.424 423.144 13.424V42.48C423.144 43.888 422.674 44.9333 421.736 45.616C420.84 46.256 419.453 46.576 417.576 46.576V17.52ZM446.279 46.576C443.249 46.576 440.988 45.7227 439.495 44.016C438.001 42.2667 437.255 39.984 437.255 37.168V18.48H431.303C431.303 17.0293 431.623 15.92 432.263 15.152C432.903 14.384 433.777 14 434.887 14H437.319V7.92C437.319 6.512 437.767 5.488 438.663 4.848C439.601 4.16533 440.988 3.824 442.823 3.824V14H451.335C451.335 16.9867 449.991 18.48 447.303 18.48H442.887V36.976C442.887 38.6827 443.185 39.8987 443.783 40.624C444.423 41.3067 445.553 41.648 447.175 41.648C448.668 41.648 450.076 41.264 451.399 40.496C451.953 41.0507 452.231 41.7973 452.231 42.736C452.231 43.76 451.697 44.656 450.631 45.424C449.564 46.192 448.113 46.576 446.279 46.576ZM468.667 46.576C464.997 46.576 462.032 45.5947 459.771 43.632C457.552 41.6693 456.443 39.088 456.443 35.888C456.443 32.6453 457.616 30.0427 459.963 28.08C462.309 26.0747 465.403 25.072 469.243 25.072C473.339 25.072 476.709 26.5227 479.355 29.424L479.611 29.168C479.141 28.656 478.608 28.1227 478.011 27.568V24.88C478.011 22.704 477.328 21.0187 475.963 19.824C474.597 18.6293 472.656 18.032 470.139 18.032C465.659 18.032 462.459 19.8027 460.539 23.344C459.856 23.0027 459.28 22.5547 458.811 22C458.384 21.4027 458.171 20.8053 458.171 20.208C458.171 19.056 458.747 17.968 459.899 16.944C461.051 15.8773 462.565 15.024 464.443 14.384C466.363 13.744 468.368 13.424 470.458 13.424C474.512 13.424 477.691 14.4267 479.995 16.432C482.341 18.4373 483.515 21.2107 483.515 24.752V42.288C483.515 43.7813 483.088 44.8693 482.235 45.552C481.381 46.2347 480.037 46.576 478.203 46.576V43.568C479.099 42.6293 479.589 42.0747 479.675 41.904L479.419 41.648C476.645 44.9333 473.061 46.576 468.667 46.576ZM469.627 42.16C472.272 42.16 474.341 41.6053 475.835 40.496C477.371 39.3867 478.139 37.8507 478.139 35.888C478.139 33.9253 477.392 32.368 475.899 31.216C474.405 30.064 472.357 29.488 469.755 29.488C467.323 29.488 465.403 30.064 463.995 31.216C462.629 32.3253 461.947 33.8827 461.947 35.888C461.947 37.8933 462.608 39.4507 463.931 40.56C465.296 41.6267 467.195 42.16 469.627 42.16Z" fill="black"/>
</svg>
