<svg width="353" height="60" viewBox="0 0 353 60" fill="none" xmlns="http://www.w3.org/2000/svg">
<path d="M0.48 5.808C0.48 4.18667 0.970667 2.928 1.952 2.032C2.976 1.09333 4.384 0.623997 6.176 0.623997L31.008 38.384L31.456 38L29.6 34.928V0.623997C31.5627 0.623997 33.0347 1.05066 34.016 1.904C35.04 2.75733 35.552 3.99466 35.552 5.616V41.84C35.552 43.2053 35.0613 44.336 34.08 45.232C33.1413 46.128 31.9253 46.576 30.432 46.576L5.024 7.984L4.576 8.368L6.432 11.44V41.584C6.432 43.2053 5.92 44.4427 4.896 45.296C3.91467 46.1493 2.44267 46.576 0.48 46.576V5.808ZM48.7665 8.624C47.5718 8.624 46.5692 8.24 45.7585 7.472C44.9478 6.704 44.5425 5.744 44.5425 4.592C44.5425 3.44 44.9478 2.50133 45.7585 1.776C46.5692 1.008 47.5718 0.623997 48.7665 0.623997C49.9185 0.623997 50.8998 1.008 51.7105 1.776C52.5212 2.50133 52.9265 3.44 52.9265 4.592C52.9265 5.744 52.5212 6.704 51.7105 7.472C50.8998 8.24 49.9185 8.624 48.7665 8.624ZM45.9505 17.52C45.9505 16.112 46.3985 15.088 47.2945 14.448C48.2332 13.7653 49.6412 13.424 51.5185 13.424V42.48C51.5185 43.888 51.0492 44.9333 50.1105 45.616C49.2145 46.256 47.8278 46.576 45.9505 46.576V17.52ZM88.5415 45.168C88.2002 45.5947 87.7735 45.936 87.2615 46.192C86.7495 46.448 86.1735 46.576 85.5335 46.576C84.8508 46.576 84.2535 46.448 83.7415 46.192C83.2295 45.936 82.7602 45.4667 82.3335 44.784L72.1575 28.848L67.4215 33.072V42.544C67.4215 45.232 65.5868 46.576 61.9175 46.576V5.232C61.9175 2.16 63.7735 0.623997 67.4855 0.623997L67.4215 27.376L82.9095 13.488C84.1468 14.64 84.7655 15.6213 84.7655 16.432C84.7655 17.0293 84.6162 17.52 84.3175 17.904C84.0615 18.2453 83.5495 18.7573 82.7815 19.44L75.6135 25.776L88.5415 45.168ZM100.454 8.624C99.2593 8.624 98.2567 8.24 97.446 7.472C96.6353 6.704 96.23 5.744 96.23 4.592C96.23 3.44 96.6353 2.50133 97.446 1.776C98.2567 1.008 99.2593 0.623997 100.454 0.623997C101.606 0.623997 102.587 1.008 103.398 1.776C104.209 2.50133 104.614 3.44 104.614 4.592C104.614 5.744 104.209 6.704 103.398 7.472C102.587 8.24 101.606 8.624 100.454 8.624ZM97.638 17.52C97.638 16.112 98.086 15.088 98.982 14.448C99.9207 13.7653 101.329 13.424 103.206 13.424V42.48C103.206 43.888 102.737 44.9333 101.798 45.616C100.902 46.256 99.5153 46.576 97.638 46.576V17.52ZM126.341 46.576C123.312 46.576 121.05 45.7227 119.557 44.016C118.064 42.2667 117.317 39.984 117.317 37.168V18.48H111.365C111.365 17.0293 111.685 15.92 112.325 15.152C112.965 14.384 113.84 14 114.949 14H117.381V7.92C117.381 6.512 117.829 5.488 118.725 4.848C119.664 4.16533 121.05 3.824 122.885 3.824V14H131.397C131.397 16.9867 130.053 18.48 127.365 18.48H122.949V36.976C122.949 38.6827 123.248 39.8987 123.845 40.624C124.485 41.3067 125.616 41.648 127.237 41.648C128.73 41.648 130.138 41.264 131.461 40.496C132.016 41.0507 132.293 41.7973 132.293 42.736C132.293 43.76 131.76 44.656 130.693 45.424C129.626 46.192 128.176 46.576 126.341 46.576ZM148.729 46.576C145.06 46.576 142.094 45.5947 139.833 43.632C137.614 41.6693 136.505 39.088 136.505 35.888C136.505 32.6453 137.678 30.0427 140.025 28.08C142.372 26.0747 145.465 25.072 149.305 25.072C153.401 25.072 156.772 26.5227 159.417 29.424L159.673 29.168C159.204 28.656 158.67 28.1227 158.073 27.568V24.88C158.073 22.704 157.39 21.0187 156.025 19.824C154.66 18.6293 152.718 18.032 150.201 18.032C145.721 18.032 142.521 19.8027 140.601 23.344C139.918 23.0027 139.342 22.5547 138.873 22C138.446 21.4027 138.233 20.8053 138.233 20.208C138.233 19.056 138.809 17.968 139.961 16.944C141.113 15.8773 142.628 15.024 144.505 14.384C146.425 13.744 148.43 13.424 150.521 13.424C154.574 13.424 157.753 14.4267 160.057 16.432C162.404 18.4373 163.577 21.2107 163.577 24.752V42.288C163.577 43.7813 163.15 44.8693 162.297 45.552C161.444 46.2347 160.1 46.576 158.265 46.576V43.568C159.161 42.6293 159.652 42.0747 159.737 41.904L159.481 41.648C156.708 44.9333 153.124 46.576 148.729 46.576ZM149.689 42.16C152.334 42.16 154.404 41.6053 155.897 40.496C157.433 39.3867 158.201 37.8507 158.201 35.888C158.201 33.9253 157.454 32.368 155.961 31.216C154.468 30.064 152.42 29.488 149.817 29.488C147.385 29.488 145.465 30.064 144.057 31.216C142.692 32.3253 142.009 33.8827 142.009 35.888C142.009 37.8933 142.67 39.4507 143.993 40.56C145.358 41.6267 147.257 42.16 149.689 42.16ZM206.714 46.576C203.087 46.576 199.866 45.9147 197.05 44.592C194.234 43.2267 192.037 41.3493 190.458 38.96C188.879 36.528 188.09 33.776 188.09 30.704V16.368C188.09 13.296 188.858 10.5653 190.394 8.176C191.973 5.78667 194.149 3.93067 196.922 2.608C199.695 1.28533 202.874 0.623997 206.458 0.623997C210.042 0.623997 213.221 1.2 215.994 2.352C218.767 3.46133 220.922 5.01867 222.458 7.024C224.037 9.02933 224.826 11.312 224.826 13.872C224.826 15.152 224.399 16.1547 223.546 16.88C222.693 17.6053 221.562 17.968 220.154 17.968C219.855 17.968 219.407 17.9253 218.81 17.84C218.895 17.328 218.938 16.5173 218.938 15.408C218.938 13.5733 218.405 11.9307 217.338 10.48C216.314 9.02933 214.842 7.89866 212.922 7.088C211.045 6.27733 208.89 5.872 206.458 5.872C204.069 5.872 201.935 6.32 200.058 7.216C198.181 8.06933 196.709 9.30666 195.642 10.928C194.618 12.5067 194.106 14.32 194.106 16.368V30.704C194.106 32.752 194.639 34.5867 195.706 36.208C196.773 37.8293 198.266 39.088 200.186 39.984C202.106 40.88 204.282 41.328 206.714 41.328C209.103 41.328 211.237 40.9227 213.114 40.112C215.034 39.3013 216.506 38.1493 217.53 36.656C218.597 35.1627 219.13 33.4773 219.13 31.6V28.016H211.066C209.743 28.016 208.677 27.568 207.866 26.672C207.055 25.7333 206.65 24.5173 206.65 23.024H222.266C223.119 23.024 223.802 23.28 224.314 23.792C224.869 24.304 225.146 24.9867 225.146 25.84V31.664C225.146 34.5653 224.357 37.1467 222.778 39.408C221.242 41.6693 219.066 43.44 216.25 44.72C213.477 45.9573 210.298 46.576 206.714 46.576ZM259.664 41.84C259.664 44.9973 257.872 46.576 254.288 46.576V42.48C254.672 42.096 255.12 41.52 255.632 40.752L255.376 40.496C254.096 42.3307 252.474 43.8027 250.512 44.912C248.592 46.0213 246.48 46.576 244.176 46.576C241.872 46.576 239.824 46.0853 238.032 45.104C236.282 44.1227 234.917 42.7573 233.936 41.008C232.997 39.2587 232.528 37.296 232.528 35.12V17.52C232.528 16.112 232.997 15.088 233.936 14.448C234.874 13.7653 236.282 13.424 238.16 13.424V34.864C238.16 36.912 238.757 38.5547 239.952 39.792C241.189 41.0293 243.002 41.648 245.392 41.648C246.97 41.648 248.421 41.328 249.744 40.688C251.066 40.0053 252.112 39.1093 252.88 38C253.69 36.848 254.096 35.6107 254.096 34.288V17.52C254.096 16.112 254.544 15.088 255.44 14.448C256.378 13.7653 257.786 13.424 259.664 13.424V41.84ZM268.605 17.968C268.605 16.56 269.032 15.4507 269.885 14.64C270.781 13.8293 272.125 13.424 273.917 13.424V17.008L272.637 18.672L272.829 18.928C274.152 17.2213 275.666 15.8773 277.373 14.896C279.08 13.9147 281.106 13.424 283.453 13.424C287.122 13.424 290.088 14.448 292.349 16.496C294.61 18.5013 295.741 21.1893 295.741 24.56V35.504C295.741 38.8747 294.568 41.5627 292.221 43.568C289.874 45.5733 286.824 46.576 283.069 46.576C281.064 46.576 279.208 46.1707 277.501 45.36C275.837 44.5067 274.365 43.3973 273.085 42.032L272.893 42.352C273.192 42.7787 273.64 43.248 274.237 43.76V55.024C274.237 57.9253 272.36 59.376 268.605 59.376V17.968ZM282.237 41.648C284.754 41.648 286.717 41.0933 288.125 39.984C289.533 38.832 290.237 37.2533 290.237 35.248V24.816C290.237 22.7253 289.533 21.1253 288.125 20.016C286.717 18.9067 284.733 18.352 282.173 18.352C279.912 18.352 278.013 18.9493 276.477 20.144C274.941 21.296 274.173 22.7467 274.173 24.496V35.568C274.173 37.2747 274.898 38.7253 276.349 39.92C277.8 41.072 279.762 41.648 282.237 41.648ZM315.154 46.576C312.124 46.576 309.863 45.7227 308.37 44.016C306.876 42.2667 306.13 39.984 306.13 37.168V18.48H300.178C300.178 17.0293 300.498 15.92 301.138 15.152C301.778 14.384 302.652 14 303.762 14H306.194V7.92C306.194 6.512 306.642 5.488 307.538 4.848C308.476 4.16533 309.863 3.824 311.698 3.824V14H320.21C320.21 16.9867 318.866 18.48 316.178 18.48H311.762V36.976C311.762 38.6827 312.06 39.8987 312.658 40.624C313.298 41.3067 314.428 41.648 316.05 41.648C317.543 41.648 318.951 41.264 320.274 40.496C320.828 41.0507 321.106 41.7973 321.106 42.736C321.106 43.76 320.572 44.656 319.506 45.424C318.439 46.192 316.988 46.576 315.154 46.576ZM337.542 46.576C333.872 46.576 330.907 45.5947 328.646 43.632C326.427 41.6693 325.318 39.088 325.318 35.888C325.318 32.6453 326.491 30.0427 328.838 28.08C331.184 26.0747 334.278 25.072 338.118 25.072C342.214 25.072 345.584 26.5227 348.23 29.424L348.486 29.168C348.016 28.656 347.483 28.1227 346.886 27.568V24.88C346.886 22.704 346.203 21.0187 344.838 19.824C343.472 18.6293 341.531 18.032 339.014 18.032C334.534 18.032 331.334 19.8027 329.414 23.344C328.731 23.0027 328.155 22.5547 327.686 22C327.259 21.4027 327.046 20.8053 327.046 20.208C327.046 19.056 327.622 17.968 328.774 16.944C329.926 15.8773 331.44 15.024 333.318 14.384C335.238 13.744 337.243 13.424 339.333 13.424C343.387 13.424 346.566 14.4267 348.87 16.432C351.216 18.4373 352.39 21.2107 352.39 24.752V42.288C352.39 43.7813 351.963 44.8693 351.11 45.552C350.256 46.2347 348.912 46.576 347.078 46.576V43.568C347.974 42.6293 348.464 42.0747 348.55 41.904L348.294 41.648C345.52 44.9333 341.936 46.576 337.542 46.576ZM338.502 42.16C341.147 42.16 343.216 41.6053 344.71 40.496C346.246 39.3867 347.014 37.8507 347.014 35.888C347.014 33.9253 346.267 32.368 344.774 31.216C343.28 30.064 341.232 29.488 338.63 29.488C336.198 29.488 334.278 30.064 332.87 31.216C331.504 32.3253 330.822 33.8827 330.822 35.888C330.822 37.8933 331.483 39.4507 332.806 40.56C334.171 41.6267 336.07 42.16 338.502 42.16Z" fill="black"/>
</svg>
